<?xml version="1.0" standalone="no"?>
<!DOCTYPE svg PUBLIC "-//W3C//DTD SVG 20010904//EN"
 "http://www.w3.org/TR/2001/REC-SVG-20010904/DTD/svg10.dtd">
<svg version="1.0" xmlns="http://www.w3.org/2000/svg"
 width="359.000000pt" height="359.000000pt" viewBox="0 0 359.000000 359.000000"
 preserveAspectRatio="xMidYMid meet">
<metadata>
Created by potrace 1.14, written by Peter Selinger 2001-2017
</metadata>
<g transform="translate(0.000000,359.000000) scale(0.100000,-0.100000)"
fill="#000000" stroke="none">
<path d="M1677 3564 c-1 -1 -27 -5 -57 -8 -92 -10 -110 -13 -240 -42 -14 -3
-31 -6 -37 -6 -7 -1 -13 -6 -13 -11 0 -6 -2 -8 -6 -5 -10 11 -166 -45 -296
-106 -43 -20 -80 -37 -83 -36 -3 0 -15 -9 -27 -20 -12 -11 -26 -20 -30 -20 -5
0 -21 -8 -36 -18 -15 -11 -47 -32 -72 -48 -25 -16 -49 -35 -53 -41 -4 -7 -13
-13 -18 -13 -6 0 -16 -6 -23 -12 -8 -7 -35 -31 -62 -53 -69 -56 -234 -227
-234 -242 0 -7 -4 -13 -8 -13 -4 0 -30 -32 -57 -71 -28 -39 -54 -76 -60 -82
-5 -7 -17 -25 -25 -42 -8 -16 -21 -36 -27 -43 -7 -7 -13 -19 -13 -26 0 -8 -7
-19 -15 -26 -9 -7 -13 -15 -11 -17 2 -3 -11 -34 -29 -69 -18 -35 -31 -64 -29
-64 3 0 -1 -10 -8 -22 -7 -13 -11 -27 -10 -32 2 -4 -2 -14 -8 -20 -5 -7 -7
-16 -3 -19 3 -4 1 -7 -6 -7 -7 0 -9 -4 -6 -10 3 -5 3 -16 -2 -22 -4 -7 -8 -17
-9 -23 -1 -5 -7 -29 -13 -53 -7 -23 -9 -46 -6 -51 3 -5 1 -11 -4 -13 -5 -1
-12 -23 -15 -48 -4 -25 -10 -65 -14 -90 -8 -59 -7 -392 2 -450 12 -81 15 -95
21 -120 3 -14 8 -38 10 -55 2 -16 8 -43 15 -59 6 -16 8 -31 5 -34 -2 -3 0 -11
7 -19 6 -8 13 -24 14 -36 1 -12 8 -35 15 -52 7 -16 13 -32 14 -35 18 -53 97
-214 107 -218 5 -2 6 -8 2 -13 -3 -5 0 -9 6 -9 6 0 8 -4 5 -10 -3 -5 -1 -10 5
-10 6 0 8 -4 5 -10 -3 -5 -2 -10 2 -10 5 0 17 -18 27 -40 10 -22 22 -38 27
-35 5 4 9 0 9 -8 0 -12 9 -26 50 -74 5 -7 10 -14 10 -16 0 -5 88 -102 153
-169 31 -32 57 -56 57 -53 0 2 12 -8 27 -23 16 -15 48 -43 73 -62 25 -19 47
-38 48 -42 2 -5 8 -6 13 -2 5 3 9 1 9 -3 0 -5 22 -22 50 -38 27 -17 50 -34 50
-38 0 -5 4 -5 10 -2 5 3 10 1 10 -4 0 -6 5 -11 11 -11 6 0 37 -15 68 -32 31
-18 58 -33 61 -33 3 0 15 -6 28 -13 12 -7 22 -9 22 -5 0 4 4 3 8 -2 9 -14 133
-66 161 -68 11 -1 21 -4 21 -8 0 -6 27 -14 80 -24 8 -2 26 -6 40 -10 14 -3 36
-8 50 -10 14 -2 40 -9 58 -14 23 -7 32 -6 32 2 0 9 2 9 8 1 4 -6 26 -10 50 -9
23 1 42 -1 42 -5 0 -7 49 -10 195 -12 117 -2 188 4 197 17 5 6 8 5 8 -3 0 -7
4 -11 9 -8 5 3 30 8 57 11 27 2 72 9 99 15 28 6 60 12 73 15 40 7 197 57 202
64 3 3 12 7 20 9 50 10 310 144 318 164 2 4 10 8 18 8 8 0 17 7 20 15 4 8 10
12 15 9 5 -3 9 0 9 5 0 6 6 11 14 11 8 0 16 3 18 8 2 4 30 29 63 55 78 63 175
157 175 169 0 5 5 6 10 3 6 -3 10 -2 10 2 0 5 13 23 29 41 17 17 28 32 26 32
-2 0 8 13 23 29 31 34 35 40 80 103 17 25 32 51 32 57 0 6 5 11 10 11 6 0 10
6 10 14 0 7 7 19 15 26 8 7 15 21 15 31 0 10 8 23 17 28 10 6 15 11 10 11 -4
0 4 21 17 47 14 27 26 55 28 63 2 8 7 18 12 22 5 3 11 12 12 20 1 7 8 27 15
43 6 17 13 36 15 43 1 8 6 21 10 30 7 18 11 29 18 60 3 9 5 17 6 17 1 0 3 7 5
15 2 8 6 29 10 45 9 43 15 76 19 106 1 14 5 30 9 35 9 16 5 558 -5 577 -5 10
-10 35 -12 57 -2 22 -6 43 -9 47 -4 3 -7 14 -7 22 0 13 -36 137 -55 189 -2 7
-5 14 -5 17 -3 13 -105 213 -121 236 -10 14 -16 29 -12 33 3 3 0 6 -7 6 -7 0
-11 3 -7 6 3 4 1 12 -6 19 -7 7 -19 23 -27 35 -8 12 -21 29 -28 36 -7 8 -11
14 -7 14 3 0 -6 12 -20 27 -14 15 -25 34 -25 41 0 7 -4 10 -10 7 -5 -3 -10 -3
-10 2 0 4 -16 26 -34 48 -43 50 -156 167 -156 160 0 -2 -11 7 -25 20 -13 14
-29 25 -35 25 -5 0 -10 7 -10 15 0 8 -4 15 -8 15 -7 0 -213 132 -247 158 -10
7 -144 75 -155 77 -3 1 -16 6 -30 12 -14 6 -45 19 -70 28 -25 9 -54 21 -65 26
-11 4 -40 14 -65 20 -25 7 -49 14 -55 15 -5 2 -21 6 -35 9 -14 3 -29 7 -35 9
-12 3 -67 14 -110 21 -82 14 -388 29 -398 19z"/>
</g>
</svg>
